<svg
    xmlns="http://www.w3.org/2000/svg"
    width="24"
    height="24"
    viewBox="0 0 24 24"
    fill="none"
    stroke="white"
    stroke-width="2"
    stroke-linecap="round"
    stroke-linejoin="round"
    class="icon icon-tabler icons-tabler-outline icon-tabler-cpu">

    <path
         d="M 5 5
             m 0 1
             a 1 1 0 0 1 1 -1
             h 12
             a 1 1 0 0 1 1 1
             v 12
             a 1 1 0 0 1 -1 1
             h-12
             a 1 1 0 0 1 -1 -1
             z" />
    <path d="M9 9h6v6h-6z" />
    <path d="M3 10h2" />
    <path d="M3 14h2" />
    <path d="M10 3v2" />
    <path d="M14 3v2" />
    <path d="M21 10h-2" />
    <path d="M21 14h-2" />
    <path d="M14 21v-2" />
    <path d="M10 21v-2" />
</svg>
