<svg xmlns="http://www.w3.org/2000/svg" width="24" height="24" fill="white" stroke="white"  stroke-width="0.6"  stroke-linecap="round"  stroke-linejoin="round"  viewBox="0 0 24 24">
  <path d="M3.25 5.5a1.25 1.25 0 0 0-1.25 1.25v10a1.25 1.25 0 0 0 1.25 1.25h5.732a1.25 1.25 0 0 0 .883-.366l.441-.441a.625.625 0 0 1 .884 0l.441.441a1.25 1.25 0 0 0 .883.366H20.75a1.25 1.25 0 0 0 1.25-1.25V6.75a1.25 1.25 0 0 0-1.25-1.25zm.625 1.25h3.75a.625.625 0 0 1 .625.625v5a.625.625 0 0 1-.625.625h-3.75a.625.625 0 0 1-.625-.625v-5a.625.625 0 0 1 .625-.625m6.25 0h3.75a.625.625 0 0 1 .625.625v5a.625.625 0 0 1-.625.625h-3.75a.625.625 0 0 1-.625-.625v-5a.625.625 0 0 1 .625-.625m5.625.625a.625.625 0 0 1 .625-.625h3.75a.625.625 0 0 1 .625.625v5a.625.625 0 0 1-.625.625h-3.75a.625.625 0 0 1-.625-.625zM4.75 13.75v2.5H3.5v-2.5zm2.5 0v2.5H5.999v-2.5zm2.5 0v2.5H8.499v-2.5zm3.75 0v2.5h-1.25v-2.5zm2.5 0v2.5h-1.25v-2.5zm2.5 0v2.5h-1.25v-2.5zm2.5 0v2.5h-1.25v-2.5z"/>
</svg>
