<svg xmlns="http://www.w3.org/2000/svg" width="24" height="24" fill="white" stroke="white"  stroke-width="0.6"  stroke-linecap="round"  stroke-linejoin="round"  viewBox="0 0 24 24">
  <path d="M6.375 10.125a0.625 0.625 0 0 1 0.625 0.625v1.25a5 5 0 0 0 10 0v-1.25a0.625 0.625 0 0 1 1.25 0v1.25a6.25 6.25 0 0 1-5.625 6.21875V20.75h3.75a0.625 0.625 0 0 1 0 1.25h-8.75a0.625 0.625 0 0 1 0-1.25h3.75v-2.53125A6.25 6.25 0 0 1 5.75 12v-1.25a0.625 0.625 0 0 1 0.625-0.625"/>
  <path d="M14.5 12a2.5 2.5 0 1 1-5 0V6.25a2.5 2.5 0 1 1 5 0zM12 2a3.75 3.75 0 0 0-3.75 3.75v6.25a3.75 3.75 0 0 0 7.5 0V5.75A3.75 3.75 0 0 0 12 2"/>
</svg>
